<?xml version="1.0" encoding="UTF-8" standalone="no"?>
<!-- Created with Inkscape (http://www.inkscape.org/) -->

<svg
   version="1.1"
   id="svg1"
   width="452.99573"
   height="643.90015"
   viewBox="0 0 452.99573 643.90015"
   xmlns="http://www.w3.org/2000/svg"
   xmlns:svg="http://www.w3.org/2000/svg">
  <defs
     id="defs1" />
  <g
     id="g1"
     transform="translate(-266.00006,-236.16975)">
    <path
       style="fill:#00ff00"
       d="m 442.966,875.41975 c -0.0932,-12.99184 -0.10343,-23.42084 -0.0293,-29.75 l 0.082,-7 7.24067,-7.52209 c 10.14115,-10.5353 39.6582,-41.71209 49.68418,-52.47791 4.60983,-4.95 11.79588,-12.39028 15.969,-16.53396 4.17313,-4.14369 16.12944,-16.51869 26.56959,-27.5 10.44015,-10.98132 19.77765,-20.10983 20.75,-20.28559 1.644,-0.29715 1.76791,1.1344 1.76791,20.42497 v 20.74451 l -14.30853,14.57504 c -7.86969,8.01627 -21.9102,22.67503 -31.20114,32.57503 -9.29094,9.9 -22.78511,24.075 -29.98705,31.5 -30.11558,31.04834 -38.40454,39.66957 -41.10234,42.75 -4.02536,4.59628 -5.39399,4.21856 -5.435,-1.5 z m 25.53173,-22.25 c 8.83821,-9.075 30.67936,-31.78786 48.5359,-50.47302 17.85654,-18.68517 35.49157,-37.13517 39.18895,-41 l 6.72252,-7.02698 0.0275,-19.19586 0.0275,-19.19587 -9.75,10.13269 c -5.3625,5.57298 -17.86688,18.48612 -27.78751,28.69587 -9.92064,10.20975 -20.76945,21.48817 -24.10847,25.06317 -3.33902,3.575 -17.60964,18.62972 -31.71248,33.45493 l -25.64154,26.95493 v 19.27273 19.27273 l 4.2141,-4.72766 c 2.31775,-2.60021 11.44536,-12.15266 20.28357,-21.22766 z M 443.00006,735.64238 v -73.19404 l 5.25,-0.6306 c 2.8875,-0.34683 7.55054,-0.63451 10.36232,-0.63929 l 5.11232,-0.009 0.67765,-5.75 c 0.37271,-3.1625 0.36728,-11.74977 -0.0121,-19.08284 l -0.68971,-13.33284 -6.60026,0.19376 c -3.63014,0.10657 -8.28776,0.14385 -10.35026,0.0828 l -3.75,-0.11092 0.0383,-33.75 0.0383,-33.75 11.51532,-12 c 6.33343,-6.6 13.82356,-14.60463 16.64474,-17.78806 2.82118,-3.18344 5.73827,-5.65844 6.48242,-5.5 1.12839,0.24024 1.36238,21.43712 1.4095,127.68465 l 0.0565,127.39659 -16.66508,16.68674 c -9.1658,9.17772 -17.30746,16.68675 -18.09258,16.68675 -1.22364,0 -1.42748,-10.45194 -1.42748,-73.19404 z m 19.14678,54.00845 15.64678,-16.01892 0.0872,-125.83504 0.0872,-125.83503 -11.23396,11.7989 c -6.17868,6.4894 -13.59647,14.1764 -16.48397,17.08222 l -5.25,5.28332 v 33.02174 33.02173 h 10.5 10.5 v 20.5 20.5 h -10.5 -10.5 l -0.10061,58.75 c -0.0553,32.3125 -0.16784,64.67148 -0.25,71.90884 -0.0974,8.57763 0.19876,12.92946 0.85061,12.5 0.55,-0.36236 8.04105,-7.86735 16.64678,-16.67776 z m 21.4647,-22.3007 c -0.27861,-0.45079 -0.40715,-57.74715 -0.28565,-127.32523 l 0.22091,-126.50561 4.8481,-5.67477 c 4.907,-5.7437 7.57788,-7.11607 7.63829,-3.92477 0.0182,0.9625 0.0213,58.54283 0.007,127.95628 l -0.0262,126.20628 -5.2569,5.04269 c -5.36054,5.14209 -6.25269,5.66962 -7.14543,4.22513 z m 11.15374,-136.89665 0.26522,-126.78373 -5.01522,5.17566 -5.01522,5.17565 v 126.28676 126.28675 l 4.75,-4.67868 4.75,-4.67869 z m 17.03118,-34.47236 0.29641,-137.18896 6.42498,-7.0612 c 15.39321,-16.91751 44.33184,-45.99454 45.06745,-45.28299 0.44249,0.42802 0.85627,62.411 0.91952,137.73996 l 0.11501,136.96175 -25.39502,26.01004 c -13.96726,14.30552 -25.91921,26.01011 -26.55988,26.01019 -0.88227,1.3e-4 -1.09296,-33.28199 -0.86847,-137.18879 z m 25.80988,110.17734 c 9.95845,-10.16879 19.74757,-20.34504 21.75359,-22.61388 l 3.64732,-4.12518 -0.2536,-135.65169 -0.25359,-135.6517 -24.34653,25.77687 -24.34654,25.77687 -0.47479,135.41622 -0.47479,135.41622 3.32133,-2.92752 c 1.82673,-1.61013 11.46915,-11.24743 21.4276,-21.41621 z M 443.00006,513.34963 V 499.5295 l 15.81601,-16.42987 c 8.69881,-9.03643 20.06131,-21.03709 25.25,-26.66813 5.52186,-5.99261 10.21722,-10.24312 11.32273,-10.25 1.75527,-0.0109 1.84518,0.60659 1.2724,8.73825 -0.33899,4.8125 -0.62643,11.57363 -0.63874,15.02473 l -0.0224,6.27472 -24.61148,25.47528 c -15.0896,15.6192 -25.34213,25.47527 -26.5,25.47527 -1.76026,0 -1.88852,-0.93861 -1.88852,-13.82012 z m 52,-51.97294 v -13.56814 l -9.22509,9.9306 c -5.07379,5.46183 -14.19658,15.1056 -20.27285,21.4306 -6.07627,6.325 -13.16965,13.75 -15.76307,16.5 l -4.7153,5 0.0353,12.5 0.0353,12.5 24.95282,-25.36246 L 495,474.94483 Z m -50.78023,-3.91673 c -1.01324,-0.37754 -1.2674,-9.06053 -1.21868,-41.63362 0.0339,-22.63612 0.0475,-45.54409 0.0302,-50.90659 l -0.0313,-9.75 -21.25,-0.0218 -21.25,-0.0218 -7.65563,-10.22817 c -4.2106,-5.6255 -11.7113,-15.57476 -16.66823,-22.10947 -4.95693,-6.53471 -8.7808,-12.48537 -8.49748,-13.22367 0.42653,-1.11155 19.24217,-1.34762 109.41823,-1.37285 120.86759,-0.0338 111.92586,-0.59908 105.65311,6.67921 -17.43192,20.2263 -108.26628,115.28173 -130.85155,136.93222 -3.51915,3.3735 -6.97456,5.91896 -7.67868,5.65659 z m 11.80314,-12.58663 c 28.52716,-28.03525 107.338,-110.40755 121.94299,-127.45358 l 6.21177,-7.25 H 476.56097 368.94421 l 7.09683,9.25 c 3.90326,5.0875 11.22832,14.73648 16.27793,21.44218 l 9.18109,12.19218 21.5,0.30782 21.5,0.30782 v 50.75022 c 0,27.91262 0.23531,50.75012 0.52291,50.75 0.2876,-1.2e-4 5.2376,-4.63361 11,-10.29664 z M 345.70353,343.65094 c -4.2881,-5.76302 -10.38744,-13.74139 -13.55409,-17.7297 -57.51846,-72.4429 -66.14938,-83.91888 -66.14938,-87.95459 0,-1.63201 1.13111,-1.7969 12.32678,-1.7969 h 12.32679 l 8.92321,11.61692 c 4.90777,6.38931 19.86843,25.62681 33.24591,42.75 29.8065,38.15238 47.17731,61.19669 47.17731,62.58595 0,0.67785 -4.67281,1.03998 -13.25,1.02684 l -13.25,-0.0203 z m 32.7233,8.7535 c -0.59028,-0.40408 -3.7395,-4.33469 -6.99826,-8.73469 -3.25877,-4.4 -15.62213,-20.375 -27.47414,-35.5 -11.852,-15.125 -25.80278,-33.089 -31.00173,-39.92001 -8.6165,-11.32139 -11.68915,-15.31263 -20.32133,-26.39653 l -2.86869,-3.68346 h -10.88131 c -5.98472,0 -10.88131,0.39722 -10.88131,0.8827 0,2.04807 18.11099,25.98229 49.91071,65.9585 11.22588,14.11234 23.96803,30.3838 28.31588,36.1588 l 7.90518,10.5 8.68411,0.56103 c 14.20728,0.91785 16.73915,0.94602 15.61089,0.17366 z m -26.79785,-60.67575 c -2.66953,-2.87129 -24.38509,-31.0756 -33.09804,-42.98795 -6.79471,-9.28974 -7.51365,-10.97988 -5.06947,-11.9178 0.80378,-0.30844 92.37878,-0.5909 203.5,-0.62769 192.67739,-0.0638 202.03839,0.0152 202.03431,1.70381 -0.005,1.92772 -3.46077,7.39709 -9.06491,14.34541 -1.96305,2.43391 -10.217,12.8791 -18.3421,23.21154 L 676.81586,294.24227 515.28688,294.13039 353.7579,294.0185 Z M 683.627,282.41975 c 16.57749,-20.60232 33.37306,-42.59988 33.37306,-43.7095 0,-0.29727 -90.675,-0.5405 -201.5,-0.5405 -110.825,0 -201.5,0.22517 -201.5,0.50037 0,0.81082 13.52507,19.09665 27.31409,36.92853 l 12.81408,16.5711 h 160.82676 160.82675 z"
       id="path2" />
    <path
       style="fill:#00ff00;stroke-width:1.73854"
       d="m 513.55553,723.44992 c 0.57875,-3.22717 1.08399,-63.85875 1.12276,-134.73685 l 0.0705,-128.86927 23.33996,-24.33956 23.33995,-24.33955 0.0599,134.61453 0.0599,134.61452 -24.52257,24.46188 c -22.57741,22.52152 -24.4391,23.99644 -23.47029,18.5943 z"
       id="path3" />
    <path
       style="fill:#00ff00;stroke-width:1.73854"
       d="m 445.15795,403.77589 -0.0917,-50.85229 -21.29711,-0.0301 -21.29711,-0.03 -13.90832,-18.43618 c -7.64958,-10.1399 -14.53395,-19.51449 -15.29862,-20.83243 -1.17478,-2.0248 14.8058,-2.39624 103.09488,-2.39624 89.72483,0 104.28877,0.34855 103.09488,2.46728 -1.95405,3.46775 -59.83597,64.77021 -100.26622,106.19147 l -33.93891,34.77079 z"
       id="path4" />
    <path
       style="fill:#00ff00;stroke-width:1.73854"
       d="m 339.83224,271.8084 c -8.577,-11.15635 -17.30821,-22.78544 -19.40269,-25.84242 l -3.80813,-5.55815 117.6825,-1.03361 c 64.72537,-0.56849 154.36527,-0.483 199.19976,0.18997 l 81.51727,1.22359 -19.87335,25.20882 -19.87336,25.20883 -159.92373,0.44362 -159.92372,0.44363 z"
       id="path5" />
    <path
       style="fill:#00ff00;stroke-width:1.73854"
       d="m 331.94994,321.34187 c -12.84751,-16.41375 -32.16778,-41.25314 -42.93392,-55.19864 -19.56428,-25.3418 -19.57224,-25.35605 -14.77759,-26.45366 13.61973,-3.11792 10.93892,-5.62014 55.53464,51.83511 22.77286,29.3396 42.42749,54.76574 43.67696,56.50255 2.12281,2.95079 1.60259,3.15783 -7.93461,3.15783 h -10.20637 z"
       id="path6" />
    <path
       style="fill:#00ff00;stroke-width:1.73854"
       d="m 445.11276,734.96774 -0.0465,-70.8455 h 11.35402 11.35402 l -0.48814,-21.29711 -0.48815,-21.29712 -10.86587,-0.51759 -10.86588,-0.51759 v -31.68165 -31.68164 l 15.64686,-15.57436 15.64686,-15.57437 V 649.90778 773.83475 L 460.75962,789.824 445.1593,805.81324 Z"
       id="path7" />
    <path
       style="fill:#00ff00;stroke-width:1.73854"
       d="m 445.14807,511.56537 0.0818,-9.99661 24.21683,-25.20883 24.21682,-25.20883 0.0409,12.19394 0.0409,12.19393 -23.05896,23.0115 c -12.68243,12.65632 -23.63523,23.0115 -24.33956,23.0115 -0.70433,0 -1.24376,-4.49847 -1.19874,-9.9966 z"
       id="path8" />
    <path
       style="fill:#00c300;fill-opacity:1;stroke-width:1.73854"
       d="m 445.13911,858.26565 0.0729,-17.68161 30.67562,-32.16299 c 16.87159,-17.68964 43.04728,-44.96323 58.16819,-60.60797 L 561.5484,719.3681 v 17.87163 17.87164 l -19.55858,20.13694 c -10.75721,11.07532 -36.9657,38.26339 -58.24108,60.41795 l -38.68252,40.281 z"
       id="path9" />
    <path
       style="fill:#00c300;fill-opacity:1;stroke-width:1.73854"
       d="m 515.19091,630.65535 c 0.63353,-50.91749 1.1652,-110.17997 1.18149,-131.6944 l 0.0296,-39.11715 21.51453,-22.60102 21.51453,-22.60101 0.70454,132.12903 0.70454,132.12903 -21.78719,22.16638 c -11.98296,12.19151 -22.51321,22.16639 -23.40057,22.16639 -0.98636,0 -1.16572,-35.97865 -0.4615,-92.57725 z"
       id="path10" />
    <path
       style="fill:#00c300;fill-opacity:1;stroke-width:1.73854"
       d="m 446.80475,756.93598 c 0,-24.92786 -0.51246,-56.00873 -1.13879,-69.06857 l -1.1388,-23.74517 h 12.62531 c 10.79837,0 12.47261,-0.39794 11.57004,-2.75 -0.5804,-1.5125 -1.05528,-11.29179 -1.05528,-21.73175 v -18.98175 h -8.55051 c -14.78489,0 -14.05051,1.66998 -14.05051,-31.9506 v -29.84006 l 15.64686,-15.57436 15.64686,-15.57437 v 122.5692 122.56921 l -14.77759,14.70081 -14.77759,14.70082 z"
       id="path11" />
    <path
       style="fill:#00c300;fill-opacity:1;stroke-width:1.73854"
       d="m 446.84291,511.12283 0.0381,-9.55407 22.35147,-23.47029 22.35147,-23.47029 0.79746,9.56197 0.79745,9.56197 -23.18708,23.46239 -23.18708,23.46238 z"
       id="path12" />
    <path
       style="fill:#00c300;fill-opacity:1;stroke-width:1.73854"
       d="m 446.88012,411.16469 c -0.0581,-21.99253 -0.59893,-44.09372 -1.20191,-49.11376 l -1.09632,-9.12733 h -19.41876 c -12.92597,0 -20.3278,-0.72662 -22.13753,-2.17318 -2.86914,-2.29336 -27.50098,-34.88548 -27.50098,-36.38847 0,-0.48259 22.68794,-1.42144 50.41766,-2.08635 54.17271,-1.29895 151.67279,0.35034 150.87157,2.55212 -0.72997,2.00591 -60.86697,65.65293 -97.59482,103.29113 l -32.23332,33.03225 z"
       id="path13" />
    <path
       style="fill:#00c300;fill-opacity:1;stroke-width:1.73854"
       d="m 338.30503,267.86402 c -10.31666,-13.58725 -18.22882,-25.23282 -17.58259,-25.87905 1.71851,-1.71851 311.74106,-2.44443 354.93924,-0.8311 l 36.74825,1.37245 -18.9431,23.90492 -18.94311,23.90492 -139.50295,0.008 c -76.72662,0.004 -148.15537,0.50653 -158.73056,1.11596 l -19.22762,1.10806 z"
       id="path14" />
    <path
       style="fill:#00c300;fill-opacity:1;stroke-width:1.73854"
       d="m 317.73272,301.20204 c -40.83254,-52.45363 -44.78196,-57.73914 -44.78196,-59.93183 0,-0.74344 3.06322,-1.3517 6.80715,-1.3517 6.18566,0 7.66769,0.99203 16.23283,10.86587 5.18413,5.97623 24.48966,30.3338 42.90118,54.12792 35.05842,45.30774 35.50118,46.1873 23.27968,46.24614 -5.19208,0.025 -7.90448,-3.02418 -44.43888,-49.9564 z"
       id="path15" />
    <path
       style="fill:#00e800;fill-opacity:1;stroke-width:1.73854"
       d="M 485.05263,640.38879 V 515.21391 l 4.34635,-4.08318 4.34635,-4.08318 v 125.17487 125.17487 l -4.34635,4.08319 -4.34635,4.08318 z"
       id="path16" />
    <path
       style="fill:#00e800;fill-opacity:1;stroke-width:1.73854"
       d="M 516.34635,591.53358 V 460.756 l 20.60474,-21.36576 20.60473,-21.36577 1.12702,28.57613 c 0.61985,15.71687 1.12701,74.42556 1.12701,130.46377 V 678.952 l -21.73175,21.67958 -21.73175,21.67957 z"
       id="path17" />
    <path
       style="fill:#00e800;fill-opacity:1;stroke-width:1.73854"
       d="m 447.74565,445.49523 c -0.51749,-1.34857 -0.95158,-20.9686 -0.96464,-43.60007 -0.013,-22.63147 -0.49547,-42.9084 -1.07203,-45.05985 -0.95298,-3.556 -2.09701,-3.91308 -12.58068,-3.92682 -6.34281,-0.008 -15.67384,-0.5125 -20.73564,-1.12043 l -9.20326,-1.10531 -13.24626,-17.56888 -13.24626,-17.56888 12.88755,-1.07667 c 17.68791,-1.47771 150.34495,-1.79373 169.91271,-0.40477 l 15.86829,1.12636 -5.42033,6.26243 c -9.40317,10.86403 -63.46894,67.68519 -92.93599,97.67234 -18.85083,19.18356 -28.63722,28.0025 -29.26346,26.37055 z"
       id="path18" />
    <path
       style="fill:#00e800;fill-opacity:1;stroke-width:1.73854"
       d="m 339.5063,268.30695 c -9.77001,-13.18955 -17.13377,-24.61089 -16.36391,-25.38075 1.71016,-1.71016 383.6592,-0.89579 385.37578,0.82167 0.67151,0.67186 -6.89143,11.42284 -16.80652,23.89108 l -18.02744,22.66952 -149.51443,0.029 c -82.23294,0.0159 -153.42615,0.46131 -158.20713,0.98974 l -8.6927,0.96079 z"
       id="path19" />
    <path
       style="fill:#00e800;fill-opacity:1;stroke-width:1.73854"
       d="m 352.13932,342.05772 c -4.84248,-5.02003 -22.13973,-26.33887 -38.43834,-47.37521 -42.72454,-55.14382 -40.04321,-51.30958 -37.15086,-53.12476 2.99976,-1.88259 8.24986,-0.50549 12.76169,3.34738 6.81735,5.82166 72.56757,89.99602 77.41849,99.11223 1.79964,3.38202 1.77175,4.40365 -0.15352,5.62363 -4.00489,2.53779 -5.36199,1.82498 -14.43746,-7.58327 z"
       id="path20" />
    <path
       style="fill:#00e800;fill-opacity:1;stroke-width:1.73854"
       d="m 478.50182,571.97963 c 0,-3.34669 0.35778,-4.71579 0.79507,-3.04245 0.43729,1.67335 0.43729,4.41155 0,6.08489 -0.43729,1.67335 -0.79507,0.30425 -0.79507,-3.04244 z"
       id="path21" />
    <path
       style="fill:#00e800;fill-opacity:1;stroke-width:1.73854"
       d="m 446.80475,510.69248 c 0,-8.13528 0.19774,-8.41753 21.29712,-30.39937 11.71341,-12.20332 21.88387,-22.44863 22.60102,-22.76736 0.71714,-0.31873 1.3039,3.2131 1.3039,7.84851 v 8.42803 l -22.60102,22.55085 -22.60102,22.55085 z"
       id="path22" />
    <path
       style="fill:#00e800;fill-opacity:1;stroke-width:1.73854"
       d="m 446.80475,743.00781 c 0,-31.63216 -0.50262,-62.32185 -1.11693,-68.1993 l -1.11694,-10.68627 h 12.67255 12.67256 l -1.12438,-13.30136 c -0.61841,-7.31574 -1.12438,-17.09503 -1.12438,-21.73174 v -8.4304 h -7.49114 c -13.65632,0 -14.1625,-1.10989 -14.80263,-32.45724 l -0.56202,-27.52238 15.77424,-15.61061 15.77425,-15.61062 v 120.83066 120.83067 l -14.77759,14.70081 -14.77759,14.70082 z"
       id="path24" />
    <path
       style="fill:#00e800;fill-opacity:1;stroke-width:1.73854"
       d="m 446.89073,856.17351 -0.086,-15.70424 28.1869,-29.49779 c 15.50279,-16.22379 41.32011,-43.15207 57.37181,-59.84062 l 29.18493,-30.34282 v 16.22494 16.22494 L 531.3135,784.7412 c -16.62919,17.32681 -42.40781,44.02077 -57.28583,59.31992 l -27.05096,27.81664 z"
       id="path25" />
  </g>
</svg>
